{"title":"Dead.Rising.Watchtower.2015.BRRip.XViD.AC3-Sorrow","uid":12163764,"size":1641474707,"categoryP":"video","categoryS":"movies","magnet":"?xt=urn:btih:1679f7b7119b6b3a5f6afe96e131069d68582914&amp;dn=Dead.Rising.Watchtower.2015.BRRip.XViD.AC3-Sorrow&amp;tr=udp%3A%2F%2Ftracker.openbittorrent.com%3A80&amp;tr=udp%3A%2F%2Fopen.demonii.com%3A1337&amp;tr=udp%3A%2F%2Ftracker.coppersurfer.tk%3A6969&amp;tr=udp%3A%2F%2Fexodus.desync.com%3A6969","seeders":0,"leechers":2,"uploader":null,"files":2,"time":1437983785,"description":"Dead Rising Watchtower 2015 BRRip XViD AC3-Sorrow\n\nGeneral\nComplete name                            : Dead.Rising.Watchtower.2015.BRRip.XViD.AC3-Sorrow.avi\nFormat                                   : AVI\nFormat/Info                              : Audio Video Interleave\nFile size                                : 1.53 GiB\nDuration                                 : 1h 58mn\nOverall bit rate                         : 1 853 Kbps\nWriting application                      : Lavf55.19.104\nWriting library                          : \n\nVideo\nID                                       : 0\nFormat                                   : MPEG-4 Visual\nFormat profile                           : Simple@L3\nFormat settings, BVOP                    : No\nFormat settings, QPel                    : No\nFormat settings, GMC                     : No warppoints\nFormat settings, Matrix                  : Default (H.263)\nCodec ID                                 : XVID\nCodec ID/Hint                            : XviD\nDuration                                 : 1h 58mn\nBit rate                                 : 1 394 Kbps\nWidth                                    : 720 pixels\nHeight                                   : 304 pixels\nDisplay aspect ratio                     : 2.40:1\nFrame rate                               : 23.976 fps\nColor space                              : YUV\nChroma subsampling                       : 4:2:0\nBit depth                                : 8 bits\nScan type                                : Progressive\nCompression mode                         : Lossy\nBits/(Pixel*Frame)                       : 0.266\nStream size                              : 1.15 GiB (75%)\nWriting library                          : XviD 64\n\nAudio\nID                                       : 1\nFormat                                   : AC-3\nFormat/Info                              : Audio Coding 3\nMode extension                           : CM (complete main)\nFormat settings, Endianness              : Big\nCodec ID                                 : 2000\nDuration                                 : 1h 58mn\nBit rate mode                            : Constant\nBit rate                                 : 448 Kbps\nChannel count                            : 2 channels\nChannel positions                        : Front: L R\nSampling rate                            : 48.0 KHz\nBit depth                                : 16 bits\nCompression mode                         : Lossy\nStream size                              : 378 MiB (24%)\nAlignment                                : Aligned on interleaves\nInterleave, duration                     : 32 ms (0.77 video frame)\nInterleave, preload duration             : 512 ms\n\n\n\nHorror:Horror\n\nA group of people fight to survive in a zombie infested town.\n\n\nDirector: Zach Lipovsky \n\nWriter: Tim Carter \n\nStars: Jesse Metcalfe, Meghan Ory, Virginia Madsen\n\n &lt;a href=&quot;\nhttp://www.imdb.com/title/tt3816458/&quot; rel=&quot;nofollow&quot; target=&quot;_NEW&quot;&gt;\nhttp://www.imdb.com/title/tt3816458/&lt;/a&gt;","torrent":{"xt":"urn:btih:1679f7b7119b6b3a5f6afe96e131069d68582914","amp;dn":"Dead.Rising.Watchtower.2015.BRRip.XViD.AC3-Sorrow","amp;tr":["udp%3A%2F%2Ftracker.openbittorrent.com%3A80","udp%3A%2F%2Fopen.demonii.com%3A1337","udp%3A%2F%2Ftracker.coppersurfer.tk%3A6969","udp%3A%2F%2Fexodus.desync.com%3A6969"],"infoHash":"1679f7b7119b6b3a5f6afe96e131069d68582914","infoHashBuffer":{"type":"Buffer","data":[22,121,247,183,17,155,107,58,95,106,254,150,225,49,6,157,104,88,41,20]},"announce":[],"urlList":[]}}